<svg xmlns="http://www.w3.org/2000/svg" viewBox="0 0 64 64" role="img" aria-label="Language learning app icon">
  <defs>
    <linearGradient id="bg" x1="0" y1="0" x2="1" y2="1">
      <stop offset="0%" stop-color="#0ea5e9"/>
      <stop offset="100%" stop-color="#22c55e"/>
    </linearGradient>
  </defs>

  <rect x="4" y="4" width="56" height="56" rx="14" fill="url(#bg)"/>

  <circle cx="32" cy="27" r="12" fill="none" stroke="#ffffff" stroke-width="2.5" opacity="0.95"/>
  <path d="M20 27h24M32 15c4 3.5 4 20 0 24M32 15c-4 3.5-4 20 0 24" fill="none" stroke="#ffffff" stroke-width="2" opacity="0.9"/>

  <path d="M16 42.5c5.3-2.5 10.7-2.5 16 0v10c-5.3-2.5-10.7-2.5-16 0z" fill="#ffffff" opacity="0.96"/>
  <path d="M32 42.5c5.3-2.5 10.7-2.5 16 0v10c-5.3-2.5-10.7-2.5-16 0z" fill="#ffffff" opacity="0.9"/>
  <line x1="32" y1="42" x2="32" y2="53" stroke="#0f172a" stroke-width="1.5" opacity="0.45"/>

  <rect x="18.3" y="45.1" width="5.4" height="3.4" rx="1" fill="#0f172a" opacity="0.75"/>
  <rect x="26.3" y="45.1" width="3.4" height="3.4" rx="1" fill="#0f172a" opacity="0.5"/>
  <rect x="34.3" y="45.1" width="5.4" height="3.4" rx="1" fill="#0f172a" opacity="0.75"/>
  <rect x="42.3" y="45.1" width="3.4" height="3.4" rx="1" fill="#0f172a" opacity="0.5"/>
</svg>
